<svg xmlns="http://www.w3.org/2000/svg" xmlns:xlink="http://www.w3.org/1999/xlink" width="1507" height="914" viewBox="0 0 1507 914">
  <defs>
    <filter id="Rectangle_129" x="0" y="39" width="1507" height="875" filterUnits="userSpaceOnUse">
      <feOffset dy="3" input="SourceAlpha"/>
      <feGaussianBlur stdDeviation="3" result="blur"/>
      <feFlood flood-opacity="0.161"/>
      <feComposite operator="in" in2="blur"/>
      <feComposite in="SourceGraphic"/>
    </filter>
  </defs>
  <g id="Group_307" data-name="Group 307" transform="translate(-97 -86)">
    <g id="Group_306" data-name="Group 306">
      <g transform="matrix(1, 0, 0, 1, 97, 86)" filter="url(#Rectangle_129)">
        <rect id="Rectangle_129-2" data-name="Rectangle 129" width="1489" height="857" transform="translate(9 45)" fill="#fff"/>
      </g>
      <g id="Group_305" data-name="Group 305">
        <g id="Path_1176" data-name="Path 1176" transform="translate(106 130)" fill="rgba(65,137,179,0.05)">
          <path d="M 280.5 857.5 L 0.5 857.5 L 0.5 0.5 L 280.5 0.5 L 280.5 857.5 Z" stroke="none"/>
          <path d="M 1 1 L 1 857 L 280 857 L 280 1 L 1 1 M 0 0 L 281 0 L 281 858 L 0 858 L 0 0 Z" stroke="none" fill="#4189b3"/>
        </g>
        <g id="Rectangle_124" data-name="Rectangle 124" transform="translate(386 130)" fill="rgba(93,157,78,0.05)" stroke="#5d9d4e" stroke-width="1">
          <rect width="1209" height="47" stroke="none"/>
          <rect x="0.5" y="0.5" width="1208" height="46" fill="none"/>
        </g>
        <g id="Rectangle_125" data-name="Rectangle 125" transform="translate(1542 176)" fill="rgba(144,54,171,0.05)" stroke="#9036ab" stroke-width="1">
          <rect width="53" height="812" stroke="none"/>
          <rect x="0.5" y="0.5" width="52" height="811" fill="none"/>
        </g>
        <text id="Sidebar" transform="translate(106 120)" fill="#6fa6c6" font-size="32" font-family="OpenSans-Regular, Open Sans"><tspan x="0" y="0">Sidebar</tspan></text>
        <text id="Top_Bar" data-name="Top Bar" transform="translate(386 120)" fill="#95bf8c" font-size="32" font-family="OpenSans-Regular, Open Sans"><tspan x="0" y="0">Top Bar</tspan></text>
        <g id="Group_304" data-name="Group 304" transform="translate(0 -26)">
          <g id="Rectangle_126" data-name="Rectangle 126" transform="translate(133 232)" fill="rgba(54,102,128,0.05)" stroke="#366680" stroke-width="1">
            <rect width="227" height="159" rx="3" stroke="none"/>
            <rect x="0.5" y="0.5" width="226" height="158" rx="2.5" fill="none"/>
          </g>
          <text id="Current_Label" data-name="Current Label" transform="translate(133 219)" fill="#62889d" font-size="26" font-family="OpenSans-Regular, Open Sans"><tspan x="0" y="0">Current Label</tspan></text>
        </g>
        <g id="Group_303" data-name="Group 303" transform="translate(0 6)">
          <g id="Rectangle_127" data-name="Rectangle 127" transform="translate(134 468)" fill="rgba(54,102,128,0.05)" stroke="#366680" stroke-width="1">
            <rect width="227" height="185" rx="3" stroke="none"/>
            <rect x="0.5" y="0.5" width="226" height="184" rx="2.5" fill="none"/>
          </g>
          <text id="All_Labels" data-name="All Labels" transform="translate(134 455)" fill="#62889d" font-size="26" font-family="OpenSans-Regular, Open Sans"><tspan x="0" y="0">All Labels</tspan></text>
        </g>
        <g id="Group_302" data-name="Group 302" transform="translate(0 12)">
          <g id="Rectangle_128" data-name="Rectangle 128" transform="translate(133 756)" fill="rgba(54,102,128,0.05)" stroke="#366680" stroke-width="1">
            <rect width="227" height="185" rx="3" stroke="none"/>
            <rect x="0.5" y="0.5" width="226" height="184" rx="2.5" fill="none"/>
          </g>
          <text id="Label_Actions" data-name="Label Actions" transform="translate(133 743)" fill="#62889d" font-size="26" font-family="OpenSans-Regular, Open Sans"><tspan x="0" y="0">Label Actions</tspan></text>
        </g>
        <g id="Rectangle_130" data-name="Rectangle 130" transform="translate(386 176)" fill="rgba(102,102,102,0.05)" stroke="#666" stroke-width="1">
          <rect width="1157" height="812" stroke="none"/>
          <rect x="0.5" y="0.5" width="1156" height="811" fill="none"/>
        </g>
      </g>
    </g>
    <text id="Tool_Bar" data-name="Tool Bar" transform="translate(1411 220)" fill="#a860bd" font-size="32" font-family="OpenSans-Regular, Open Sans"><tspan x="0" y="0">Tool Bar</tspan></text>
    <text id="Labeling_Canvas" data-name="Labeling Canvas" transform="translate(868 553)" fill="#888" font-size="32" font-family="OpenSans-Regular, Open Sans"><tspan x="0" y="0">Labeling Canvas</tspan></text>
  </g>
</svg>
