<svg xmlns="http://www.w3.org/2000/svg" xmlns:xlink="http://www.w3.org/1999/xlink" width="80.097" height="66.5" viewBox="0 0 80.097 66.5">
  <defs>
    <linearGradient id="linear-gradient" x1="0.974" y1="0.078" x2="0.017" y2="0.955" gradientUnits="objectBoundingBox">
      <stop offset="0" stop-color="#0b8ad5"/>
      <stop offset="1" stop-color="#48616f"/>
    </linearGradient>
  </defs>
  <g id="warehouse-icon" transform="translate(1 1)">
    <g id="Group_1951" data-name="Group 1951">
      <g id="Group_1949" data-name="Group 1949">
        <g id="Group_1952" data-name="Group 1952">
          <g id="Layer_1" data-name="Layer 1">
            <path id="Path_1081" data-name="Path 1081" d="M18.106,0c10,0,18.106,2.752,18.106,6.147s-8.106,6.147-18.106,6.147S0,9.542,0,6.147,8.106,0,18.106,0Z" transform="translate(0 8.478)" fill="#fff" stroke="#2e3c44" stroke-width="2"/>
            <path id="Path_1070" data-name="Path 1070" d="M37.211,25.76c0,3.4-8.1,6.147-18.106,6.147S1,29.176,1,25.76" transform="translate(-1 0.348)" fill="rgba(0,0,0,0)" stroke="#2e3c44" stroke-width="2"/>
            <path id="Path_1071" data-name="Path 1071" d="M37.211,35.93c0,3.4-8.1,6.147-18.106,6.147S1,39.325,1,35.93" transform="translate(-1 0.902)" fill="rgba(0,0,0,0)" stroke="#2e3c44" stroke-width="2"/>
            <path id="Path_1072" data-name="Path 1072" d="M37.211,14.871V48.613c0,3.4-8.1,6.147-18.106,6.147S1,52,1,48.6V14.86" transform="translate(-1 -0.245)" fill="rgba(0,0,0,0)" stroke="#2e3c44" stroke-width="2"/>
            <ellipse id="Ellipse_87" data-name="Ellipse 87" cx="1.481" cy="1.497" rx="1.481" ry="1.497" transform="translate(11.504 24.769)" fill="#2e3c44"/>
            <path id="Path_1079" data-name="Path 1079" d="M1.481,0A1.489,1.489,0,0,1,2.962,1.5a1.489,1.489,0,0,1-1.481,1.5A1.489,1.489,0,0,1,0,1.5,1.489,1.489,0,0,1,1.481,0Z" transform="translate(17.574 24.769)" fill="#f3a63b"/>
            <ellipse id="Ellipse_89" data-name="Ellipse 89" cx="1.481" cy="1.497" rx="1.481" ry="1.497" transform="translate(23.633 24.769)" fill="#5d9d4e"/>
            <ellipse id="Ellipse_90" data-name="Ellipse 90" cx="1.481" cy="1.497" rx="1.481" ry="1.497" transform="translate(11.504 36.072)" fill="#2e3c44"/>
            <ellipse id="Ellipse_91" data-name="Ellipse 91" cx="1.481" cy="1.497" rx="1.481" ry="1.497" transform="translate(17.574 36.072)" fill="#f3a63b"/>
            <ellipse id="Ellipse_92" data-name="Ellipse 92" cx="1.481" cy="1.497" rx="1.481" ry="1.497" transform="translate(23.633 36.072)" fill="#5d9d4e"/>
            <ellipse id="Ellipse_93" data-name="Ellipse 93" cx="1.481" cy="1.497" rx="1.481" ry="1.497" transform="translate(11.504 47.555)" fill="#2e3c44"/>
            <ellipse id="Ellipse_94" data-name="Ellipse 94" cx="1.481" cy="1.497" rx="1.481" ry="1.497" transform="translate(17.574 47.555)" fill="#f3a63b"/>
            <ellipse id="Ellipse_95" data-name="Ellipse 95" cx="1.481" cy="1.497" rx="1.481" ry="1.497" transform="translate(23.633 47.555)" fill="#5d9d4e"/>
            <path id="Path_1080" data-name="Path 1080" d="M1.714,0h18.7a1.74,1.74,0,0,1,1.714,1.765V15.179a1.74,1.74,0,0,1-1.714,1.765H1.714A1.74,1.74,0,0,1,0,15.179V1.765A1.74,1.74,0,0,1,1.714,0Z" transform="translate(55.965 0)" stroke="#0a141e" stroke-width="2" fill="url(#linear-gradient)"/>
            <ellipse id="Ellipse_96" data-name="Ellipse 96" cx="1.314" cy="1.329" rx="1.314" ry="1.329" transform="translate(65.738 7.128)" fill="#5d9d4e"/>
            <ellipse id="Ellipse_97" data-name="Ellipse 97" cx="1.314" cy="1.329" rx="1.314" ry="1.329" transform="translate(60.074 7.128)" fill="#fff"/>
            <path id="Path_1104" data-name="Path 1104" d="M5.914,0H0" transform="translate(72.183 8.478)" fill="none" stroke="#0a141e" stroke-linecap="round" stroke-width="2"/>
            <rect id="Rectangle_66" data-name="Rectangle 66" width="22.132" height="16.945" rx="1.56" transform="translate(55.965 23.778)" stroke="#0a141e" stroke-width="2" fill="url(#linear-gradient)"/>
            <ellipse id="Ellipse_98" data-name="Ellipse 98" cx="1.314" cy="1.329" rx="1.314" ry="1.329" transform="translate(65.738 30.906)" fill="#5d9d4e"/>
            <ellipse id="Ellipse_99" data-name="Ellipse 99" cx="1.314" cy="1.329" rx="1.314" ry="1.329" transform="translate(60.074 30.906)" fill="#fff"/>
            <line id="Line_9" data-name="Line 9" x1="5.914" transform="translate(72.183 32.255)" fill="none" stroke="#0a141e" stroke-linecap="round" stroke-width="2"/>
            <rect id="Rectangle_67" data-name="Rectangle 67" width="22.132" height="16.945" rx="1.56" transform="translate(55.965 47.555)" stroke="#0a141e" stroke-width="2" fill="url(#linear-gradient)"/>
            <ellipse id="Ellipse_100" data-name="Ellipse 100" cx="1.314" cy="1.329" rx="1.314" ry="1.329" transform="translate(65.738 54.683)" fill="#5d9d4e"/>
            <ellipse id="Ellipse_101" data-name="Ellipse 101" cx="1.314" cy="1.329" rx="1.314" ry="1.329" transform="translate(60.074 54.683)" fill="#fff"/>
            <line id="Line_10" data-name="Line 10" x1="5.914" transform="translate(72.183 56.033)" fill="none" stroke="#0a141e" stroke-linecap="round" stroke-width="2"/>
            <path id="Path_1073" data-name="Path 1073" d="M50.437,9.02H45.18V56.6h5.257" transform="translate(0.898 -0.563)" fill="rgba(0,0,0,0)" stroke="#0a141e" stroke-width="2"/>
            <line id="Line_11" data-name="Line 11" x2="5.256" transform="translate(40.821 20.772)" fill="none" stroke="#0a141e" stroke-width="2"/>
            <line id="Line_12" data-name="Line 12" x1="5.256" transform="translate(46.078 32.255)" fill="none" stroke="#0a141e" stroke-width="2"/>
            <line id="Line_13" data-name="Line 13" x2="5.256" transform="translate(40.821 43.675)" fill="none" stroke="#0a141e" stroke-width="2"/>
          </g>
        </g>
      </g>
    </g>
  </g>
</svg>
